<?xml version="1.0" encoding="UTF-8"?>
<svg id="Layer_1" xmlns="http://www.w3.org/2000/svg" version="1.1" viewBox="0 0 42 42">
  <!-- Generator: Adobe Illustrator 29.1.0, SVG Export Plug-In . SVG Version: 2.1.0 Build 142)  -->
  <defs>
    <style>
      .st0 {
        fill: #000;
      }
    </style>
  </defs>
  <path class="st0" d="M21,0C9.4,0,0,9.4,0,21s9.4,21,21,21,21-9.4,21-21S32.6,0,21,0ZM30.63,30.29c-.38.62-1.18.81-1.8.44-4.93-3.01-11.14-3.69-18.45-2.02-.7.16-1.41-.28-1.57-.98-.16-.7.28-1.41.98-1.57,8-1.83,14.86-1.04,20.4,2.34.62.38.81,1.18.43,1.8ZM33.2,24.57c-.47.77-1.48,1.01-2.25.54-5.64-3.47-14.25-4.47-20.93-2.45-.87.26-1.78-.23-2.04-1.09-.26-.87.23-1.78,1.09-2.04,7.63-2.31,17.11-1.19,23.59,2.79.77.47,1.01,1.48.54,2.25ZM33.42,18.62c-6.77-4.02-17.93-4.39-24.4-2.43-1.04.31-2.14-.27-2.45-1.31-.31-1.04.27-2.13,1.31-2.45,7.42-2.25,19.75-1.82,27.54,2.81.93.55,1.24,1.76.69,2.69-.55.93-1.76,1.24-2.69.69Z"/>
</svg>